HIERARCHY
ROOT Hips
{
	OFFSET 0.000000 0.000000 0.000000 
	CHANNELS 6 Xposition Yposition Zposition Zrotation Yrotation Xrotation
	JOINT LeftUpLeg
	{
		OFFSET 1.363060 -1.794630 0.839290 
		CHANNELS 3 Zrotation Yrotation Xrotation
		JOINT LeftLeg
		{
			OFFSET 2.448110 -6.726130 0.000000 
			CHANNELS 3 Zrotation Yrotation Xrotation
			JOINT LeftFoot
			{
				OFFSET 2.562200 -7.039590 0.000000 
				CHANNELS 3 Zrotation Yrotation Xrotation
				JOINT LeftToeBase
				{
					OFFSET 0.157640 -0.433110 2.322550 
					CHANNELS 3 Zrotation Yrotation Xrotation
					End Site
					{
						OFFSET 0.000000 0.000000 0.000000 
					}
				}
			}
		}
	}
	JOINT RightUpLeg
	{
		OFFSET -1.305520 -1.794630 0.839290 
		CHANNELS 3 Zrotation Yrotation Xrotation
		JOINT RightLeg
		{
			OFFSET -2.542530 -6.985550 0.000000 
			CHANNELS 3 Zrotation Yrotation Xrotation
			JOINT RightFoot
			{
				OFFSET -2.568260 -7.056230 0.000000 
				CHANNELS 3 Zrotation Yrotation Xrotation
				JOINT RightToeBase
				{
					OFFSET -0.164730 -0.452590 2.363150 
					CHANNELS 3 Zrotation Yrotation Xrotation
					End Site
					{
						OFFSET 0.000000 0.000000 0.000000 
					}
				}
			}
		}
	}
	JOINT Spine
	{
		OFFSET 0.028270 2.035590 -0.193380 
		CHANNELS 3 Zrotation Yrotation Xrotation
		JOINT Spine1
		{
			OFFSET 0.056720 2.048850 -0.042750 
			CHANNELS 3 Zrotation Yrotation Xrotation
			JOINT Neck1
			{
				OFFSET -0.054170 1.746240 0.172020 
				CHANNELS 3 Zrotation Yrotation Xrotation
				JOINT Head
				{
					OFFSET 0.104070 1.761360 -0.123970 
					CHANNELS 3 Zrotation Yrotation Xrotation
					End Site
					{
						OFFSET 0.000000 0.000000 0.000000 
					}
				}
			}
			JOINT LeftArm
			{
				OFFSET 3.362410 1.200890 -0.311210 
				CHANNELS 3 Zrotation Yrotation Xrotation
				JOINT LeftForeArm
				{
					OFFSET 4.983000 -0.000000 -0.000000 
					CHANNELS 3 Zrotation Yrotation Xrotation
					JOINT LeftHand
					{
						OFFSET 3.483560 -0.000000 -0.000000 
						CHANNELS 3 Zrotation Yrotation Xrotation
						JOINT LeftHandIndex1
						{
							OFFSET 0.715260 -0.000000 -0.000000 
							CHANNELS 3 Zrotation Yrotation Xrotation
							End Site
							{
								OFFSET 0.000000 0.000000 0.000000 
							}
						}
					}
				}
			}
			JOINT RightArm
			{
				OFFSET -3.136600 1.374050 -0.404650 
				CHANNELS 3 Zrotation Yrotation Xrotation
				JOINT RightForeArm
				{
					OFFSET -5.241900 -0.000000 -0.000000 
					CHANNELS 3 Zrotation Yrotation Xrotation
					JOINT RightHand
					{
						OFFSET -3.444170 -0.000000 -0.000000 
						CHANNELS 3 Zrotation Yrotation Xrotation
						JOINT RightHandIndex1
						{
							OFFSET -0.622530 -0.000000 -0.000000 
							CHANNELS 3 Zrotation Yrotation Xrotation
							End Site
							{
								OFFSET 0.000000 0.000000 0.000000 
							}
						}
					}
				}
			}
		}
	}
}
MOTION
Frames: 18
Frame Time: 0.041667
-0.214400 14.834202 -14.727002 -2.397793 1.067228 30.101176 -5.074785 -11.894546 -67.011327 13.947118 20.877718 72.498504 -0.246772 12.982128 -26.279660 0.668800 -5.229900 -14.565500 10.820631 18.644249 -68.917517 -14.568433 -21.448662 74.502908 -1.665712 -6.541037 -30.239423 -0.033300 1.178200 -3.239100 1.784016 1.401580 -2.449221 4.003582 0.387228 -5.982418 3.329163 -0.082180 3.736470 0.298700 -0.076500 4.590900 -92.600839 -19.222022 4.842627 1.816852 -5.232829 0.083207 -0.258906 -0.344859 11.590756 -7.125000 0.000000 0.000000 89.802004 16.018276 -5.524505 -7.955509 16.450082 -1.306220 0.991217 0.506538 41.232814 7.125000 0.000000 0.000000 
-0.215919 14.940289 -14.582955 -2.333519 1.105457 29.562997 -5.625033 -11.652942 -65.061200 13.467576 20.697136 71.116026 -0.306480 13.094677 -26.130437 0.751200 -5.536000 -15.443800 11.504436 18.155904 -66.917904 -14.110232 -21.278985 73.187885 -1.640752 -6.591772 -30.169774 -0.061600 1.601700 -4.406100 1.784022 1.354602 -2.490509 4.041825 0.366900 -5.926687 3.341329 -0.095691 4.372189 0.310400 -0.071600 4.822200 -92.644775 -21.061327 4.556464 1.840447 -5.262296 0.079166 -0.256580 -0.334770 11.740513 -7.125000 0.000000 0.000000 89.651333 17.634103 -4.938977 -8.079917 16.612327 -1.348134 0.996263 0.486365 41.388327 7.125000 0.000000 0.000000 
-0.217538 15.055182 -14.431215 -2.252248 1.153556 28.942576 -6.241135 -11.346934 -62.934136 12.940589 20.480464 69.586802 -0.361600 13.154063 -25.947923 0.828000 -5.805500 -16.221200 12.219787 17.597531 -64.726053 -13.608486 -21.075944 71.736920 -1.615744 -6.625651 -30.083073 -0.093600 1.973000 -5.431100 1.779124 1.301553 -2.530345 4.060744 0.344105 -5.867629 3.370540 -0.123056 5.073742 0.328500 -0.070600 5.068800 -92.713792 -22.743610 4.307912 1.930970 -5.414675 0.068801 -0.255807 -0.324402 11.945349 -7.125000 0.000000 0.000000 89.543511 19.141865 -4.248955 -8.206876 16.785730 -1.392268 0.997486 0.469564 41.551230 7.125000 0.000000 0.000000 
-0.219259 15.179085 -14.271680 -2.162998 1.214444 28.245093 -6.901334 -10.969447 -60.639070 12.366825 20.222588 67.906601 -0.421101 13.177712 -25.697241 0.903800 -6.058500 -16.954100 12.967946 16.969169 -62.346100 -13.060733 -20.833672 70.137976 -1.590677 -6.633454 -29.970361 -0.123300 2.263200 -6.233700 1.770882 1.242971 -2.567805 4.059546 0.318657 -5.798223 3.407655 -0.164912 5.851116 0.349900 -0.074400 5.336500 -92.811772 -24.257919 4.094926 2.092466 -5.697054 0.050569 -0.255018 -0.314861 12.074821 -7.125000 0.000000 0.000000 89.489868 20.518752 -3.387986 -8.362497 17.014850 -1.447225 0.993244 0.460781 41.460324 7.125000 0.000000 0.000000 
-0.220980 15.311592 -14.104452 -2.066579 1.284532 27.481143 -7.589135 -10.518534 -58.193642 11.748756 19.919477 66.076040 -0.490769 13.172015 -25.345953 0.981900 -6.307600 -17.679600 13.733748 16.273829 -59.790113 -12.465697 -20.546448 68.381313 -1.562216 -6.616475 -29.811071 -0.146400 2.465400 -6.793600 1.760406 1.179982 -2.601861 4.042663 0.290704 -5.710260 3.432995 -0.215176 6.686097 0.366300 -0.081900 5.614400 -92.944767 -25.614126 3.914084 2.314409 -6.089636 0.023978 -0.253201 -0.306770 12.043837 -7.125000 0.000000 0.000000 89.495630 21.748450 -2.327757 -8.563339 17.326601 -1.518549 0.984222 0.461007 40.952364 7.125000 0.000000 0.000000 
-0.222093 15.452703 -13.929328 -1.969316 1.362153 26.660609 -8.281661 -9.994414 -55.613724 11.090988 19.567655 64.100506 -0.577848 13.151532 -24.860344 1.068600 -6.571600 -18.452200 14.506760 15.511223 -57.072648 -11.821961 -20.207740 66.456137 -1.517926 -6.610310 -29.568614 -0.167000 2.632500 -7.257200 1.748716 1.114450 -2.630208 4.009276 0.260332 -5.587711 3.442176 -0.268759 7.549447 0.378100 -0.091400 5.884500 -93.119932 -26.862743 3.758539 2.564646 -6.532054 -0.008350 -0.249693 -0.300604 11.826621 -7.125000 0.000000 0.000000 89.561315 22.838678 -1.117386 -8.802866 17.708824 -1.604265 0.972044 0.468157 40.035521 7.125000 0.000000 0.000000 
-0.222701 15.602520 -13.745803 -1.867151 1.444548 25.789366 -8.967115 -9.400203 -52.918370 10.401469 19.165603 61.994157 -0.686848 13.113819 -24.194455 1.163300 -6.847100 -19.263200 15.263264 14.685752 -54.203291 -11.132017 -19.811803 64.360123 -1.450569 -6.629092 -29.212710 -0.189900 2.806300 -7.740000 1.736072 1.047301 -2.650271 3.964108 0.227805 -5.418544 3.432413 -0.321583 8.419395 0.383700 -0.101800 6.135100 -93.347779 -28.046045 3.624717 2.816301 -6.974824 -0.044346 -0.244197 -0.296366 11.483340 -7.125000 0.000000 0.000000 89.680675 23.802096 0.209584 -9.070739 18.143407 -1.701221 0.958681 0.479895 38.824937 7.125000 0.000000 0.000000 
-0.222498 15.760334 -13.554077 -1.755178 1.531211 24.879694 -9.635493 -8.739468 -50.149154 9.693813 18.716215 59.788577 -0.816364 13.046573 -23.317670 1.270300 -7.143600 -20.141600 15.977281 13.799971 -51.205905 -10.402612 -19.354760 62.101603 -1.355226 -6.674579 -28.709908 -0.219800 3.018000 -8.329000 1.721937 0.978059 -2.662097 3.908260 0.192860 -5.199783 3.406159 -0.369830 9.277650 0.383500 -0.111000 6.354800 -93.633734 -29.185851 3.511153 3.053194 -7.388952 -0.081455 -0.236764 -0.294134 11.142749 -7.125000 0.000000 0.000000 89.843239 24.654494 1.589194 -9.340880 18.587021 -1.800662 0.945950 0.492507 37.558362 7.125000 0.000000 0.000000 
-0.221689 15.926044 -13.354052 -1.627185 1.626010 23.948469 -10.278882 -8.016323 -47.359863 8.985199 18.226850 57.527303 -0.958906 12.915574 -22.193259 1.388000 -7.454000 -21.067600 16.624500 12.857160 -48.121514 -9.644548 -18.835926 59.701108 -1.223312 -6.765936 -28.021177 -0.264500 3.308700 -9.139500 1.704852 0.901413 -2.665546 3.839349 0.153204 -4.922474 3.387113 -0.419358 10.119938 0.387400 -0.119900 6.540400 -93.975224 -30.274763 3.413198 3.267830 -7.759992 -0.117534 -0.229052 -0.292919 11.012189 -7.125000 0.000000 0.000000 90.047161 25.424734 2.950892 -9.582444 18.990168 -1.891687 0.935038 0.502813 36.494089 7.125000 0.000000 0.000000 
-0.220170 16.098940 -13.146029 -1.481414 1.736045 23.014061 -10.877788 -7.259601 -44.673079 8.352436 17.748437 55.455828 -1.083566 12.676638 -20.927523 1.513600 -7.769500 -22.016200 17.178374 11.879259 -45.053535 -8.931171 -18.296292 57.379546 -1.084048 -6.835841 -27.237556 -0.322300 3.649300 -10.092200 1.683591 0.812013 -2.661907 3.751468 0.106815 -4.584696 3.388504 -0.476861 10.948230 0.399400 -0.130300 6.692100 -94.360324 -31.281148 3.324994 3.465167 -8.097494 -0.152524 -0.222052 -0.292316 11.306116 -7.125000 0.000000 0.000000 90.293261 26.129789 4.266914 -9.776361 19.324391 -1.967109 0.925650 0.509263 35.785805 7.125000 0.000000 0.000000 
-0.218247 16.278923 -12.930920 -1.316278 1.866518 22.102274 -11.432573 -6.464219 -42.100714 7.753610 17.262519 53.439242 -1.187476 12.257785 -19.367363 1.636400 -8.063800 -22.907900 17.637227 10.860363 -42.016416 -8.222206 -17.714579 55.003311 -0.914161 -6.879909 -26.187338 -0.394800 4.034500 -11.173800 1.657448 0.703549 -2.652767 3.643357 0.051030 -4.180563 3.408523 -0.543285 11.765030 0.415900 -0.142200 6.810500 -94.768347 -32.155025 3.235140 3.664805 -8.439194 -0.188545 -0.216699 -0.292476 12.093009 -7.125000 0.000000 0.000000 90.591914 26.786121 5.511886 -9.912351 19.574022 -2.022424 0.917342 0.512566 35.468211 7.125000 0.000000 0.000000 
-0.214704 16.384605 -12.721480 -1.140369 2.023313 21.226933 -11.869727 -5.714240 -39.971764 7.293700 16.858138 51.832056 -1.244291 11.598532 -17.510415 1.752500 -8.330200 -23.721700 17.941179 9.879588 -39.368615 -7.628136 -17.181387 52.939728 -0.723307 -6.856486 -24.838236 -0.483000 4.456600 -12.364900 1.628128 0.572362 -2.638579 3.514990 -0.015966 -3.707274 3.452861 -0.623642 12.581428 0.441200 -0.158000 6.902800 -95.184627 -32.860887 5.724021 3.865296 -8.849077 -0.222700 -0.205206 -0.303825 10.801045 -7.125000 0.000000 0.000000 90.948595 27.394954 6.701578 -10.000373 19.756112 -2.060786 0.909488 0.513880 35.415856 7.125000 0.000000 0.000000 
-0.212781 16.586149 -12.494730 -0.963673 2.208792 20.404993 -12.296083 -4.878768 -37.711280 6.776364 16.387836 49.991387 -1.264389 10.728570 -15.292643 1.855100 -8.557400 -24.420400 18.248937 8.777854 -36.522135 -6.965136 -16.549980 50.565995 -0.508907 -6.760525 -23.121677 -0.582700 4.887900 -13.589100 1.597756 0.419380 -2.618449 3.377347 -0.094420 -3.163228 3.515881 -0.715423 13.397692 0.474900 -0.177400 6.972500 -95.591543 -33.378901 8.366779 4.100574 -9.327516 -0.262922 -0.195521 -0.316409 9.618006 -7.125000 0.000000 0.000000 91.363927 27.946970 7.872908 -10.067785 19.913625 -2.092234 0.901099 0.513725 35.440206 7.125000 0.000000 0.000000 
-0.210857 16.795791 -12.263020 -0.796474 2.412564 19.630011 -12.635675 -4.043558 -35.635123 6.304210 15.935578 48.264647 -1.230934 9.645322 -12.719981 1.938400 -8.736600 -24.974700 18.490760 7.641038 -33.848341 -6.351329 -15.917421 48.278112 -0.286916 -6.554867 -21.005623 -0.691800 5.317000 -14.815100 1.569248 0.250770 -2.590891 3.239769 -0.181517 -2.555918 3.579534 -0.806795 14.204987 0.510900 -0.196900 7.018000 -95.979455 -33.714784 11.203494 4.379807 -9.894118 -0.311890 -0.186455 -0.331298 8.242811 -7.125000 0.000000 0.000000 91.830186 28.434948 9.040642 -10.136052 20.078497 -2.124479 0.891157 0.514369 35.372254 7.125000 0.000000 0.000000 
-0.208731 17.015051 -12.026755 -0.649361 2.615153 18.888460 -12.891279 -3.182229 -33.634842 5.800733 15.439100 46.387566 -1.157233 8.413395 -9.599781 1.995200 -8.856000 -25.345900 18.681859 6.443408 -31.263052 -5.725677 -15.231787 45.853767 -0.051890 -6.243095 -18.304447 -0.799500 5.707200 -15.937100 1.544856 0.078419 -2.552711 3.112106 -0.272009 -1.892081 3.628560 -0.888475 14.998354 0.544100 -0.213800 7.042900 -96.352425 -33.898517 14.157984 4.706586 -10.553900 -0.372569 -0.176218 -0.348988 6.494002 -7.125000 0.000000 0.000000 92.329429 28.854277 10.222619 -10.225307 20.280936 -2.165310 0.879058 0.517725 35.104016 7.125000 0.000000 0.000000 
-0.206302 17.244837 -11.787554 -0.525477 2.809656 18.174741 -13.056690 -2.350110 -31.764730 5.317437 14.942630 44.550348 -1.040921 7.156882 -6.049079 2.021000 -8.909600 -25.513000 18.812664 5.227633 -28.858068 -5.152080 -14.554222 43.530557 0.155119 -5.807812 -15.150852 -0.884100 5.994000 -16.766900 1.525899 -0.091231 -2.504516 2.999867 -0.362685 -1.193335 3.649566 -0.949999 15.765134 0.568900 -0.224300 7.044900 -96.711251 -33.969870 17.161293 5.080181 -11.302636 -0.447207 -0.163024 -0.369387 4.244034 -7.125000 0.000000 0.000000 92.838839 29.193997 11.427337 -10.351551 20.543230 -2.220658 0.864180 0.525603 34.609664 7.125000 0.000000 0.000000 
-0.203063 17.485759 -11.546126 -0.435303 2.979163 17.473803 -13.129647 -1.568456 -29.983175 4.841725 14.435385 42.710782 -0.892976 6.030265 -2.031975 2.016200 -8.899800 -25.482400 18.888181 4.023072 -26.622495 -4.624163 -13.887431 41.300656 0.326486 -5.325488 -11.543505 -0.927500 6.135300 -17.177400 1.512610 -0.247094 -2.445260 2.900139 -0.447795 -0.474469 3.640867 -0.986196 16.499608 0.584600 -0.226000 7.027400 -97.061248 -33.967875 20.099685 5.494400 -12.122818 -0.536740 -0.146296 -0.391477 1.541874 -7.125000 0.000000 0.000000 93.338974 29.457957 12.646348 -10.517641 20.867862 -2.292227 0.847100 0.536684 33.932898 7.125000 0.000000 0.000000 
-0.198609 17.736804 -11.303483 -0.377130 3.104787 16.779674 -13.119793 -0.878134 -28.254822 4.369417 13.911347 40.844432 -0.719113 5.216324 2.453191 1.973600 -8.810900 -25.205600 18.896190 2.873284 -24.542088 -4.136902 -13.233625 39.157012 0.462569 -4.942964 -7.495472 -0.909700 6.077700 -17.009900 1.502476 -0.379597 -2.376158 2.806372 -0.522117 0.247948 3.617170 -1.002576 17.199619 0.598000 -0.220600 6.993400 -97.400248 -33.920850 22.858866 5.940987 -12.992846 -0.641712 -0.125725 -0.414145 -1.402918 -7.125000 0.000000 0.000000 93.811442 29.655573 13.872631 -10.715248 21.240147 -2.377357 0.829161 0.548253 33.157774 7.125000 0.000000 0.000000 
